<svg id="Layer_1" data-name="Layer 1" xmlns="http://www.w3.org/2000/svg" viewBox="0 0 346.01 346.01"><defs><style>.cls-1{fill:#e9625f;}.cls-2{fill:#fff;}</style></defs><circle class="cls-1" cx="173.01" cy="173.01" r="173.01"/><path class="cls-2" d="M203.39,166.56h-64v-1.05a20.71,20.71,0,0,0,4.86-1.36,10,10,0,0,0,3.72-2.61,4.71,4.71,0,0,0,.84-1.84c.21-.8.4-1.72.57-2.77a30.24,30.24,0,0,0,.37-3.3c.07-1.15.1-2.28.1-3.4,0-1,0-2.3.06-4s.07-3.51.1-5.5,0-4,0-6.12V108.16c0-1.26,0-2.55,0-3.87s-.1-2.58-.21-3.77a19.5,19.5,0,0,0-.52-3.19,4.45,4.45,0,0,0-1-2,7.07,7.07,0,0,0-3.34-2.15,45.36,45.36,0,0,0-4.61-.89v-1h57.77l7.12,17.27-1,.53q-8.48-10.57-15.91-14.24a25.68,25.68,0,0,0-6.59-1.46,92.34,92.34,0,0,0-11.72-.63c-1.47,0-3,0-4.55.16a28.37,28.37,0,0,0-3.4.36q-.22,1.68-.37,6.91t-.16,12.14v6.7c0,1.81,0,3.3.05,4.45s.06,2,.06,2.67v1.15h2.09c1,0,2.25,0,3.61-.11s2.72-.15,4.08-.26a22.66,22.66,0,0,0,3.4-.47,18.21,18.21,0,0,0,5.24-2,11.63,11.63,0,0,0,3.4-3,14.9,14.9,0,0,0,2.09-4.14,48.66,48.66,0,0,0,1.41-5.28h1.26v33h-1.26a35.68,35.68,0,0,0-2.56-6.91,18.55,18.55,0,0,0-3.61-5.34,13.92,13.92,0,0,0-4-2.41,18,18,0,0,0-5.5-1.15l-2.61-.16c-.7,0-1.4-.05-2.1-.05h-4.81a32.68,32.68,0,0,0-.21,4.29v12.56c0,1.12,0,2.18.05,3.2s.06,1.86.06,2.56c.06,2.23.19,4.34.36,6.33a10.08,10.08,0,0,0,1.21,4.45c.62,1,2.12,1.67,4.5,2.09a44.43,44.43,0,0,0,7.74.63c1.19,0,2.7,0,4.55-.1s3.79-.25,5.81-.53a23.19,23.19,0,0,0,6.18-1.62,21.92,21.92,0,0,0,5.44-3.4A34.84,34.84,0,0,0,202.4,154a72.84,72.84,0,0,0,5.07-7.69l1.15.31Z"/><path class="cls-2" d="M222.88,230.54a20.41,20.41,0,0,1-5.65,6.8,24.17,24.17,0,0,1-8.64,4.19,42.22,42.22,0,0,1-11,1.36,52.9,52.9,0,0,1-8.8-.63,34.11,34.11,0,0,1-6.06-1.52,21.28,21.28,0,0,1-3.61-1.62,4.67,4.67,0,0,0-1.52-.73c-.21,0-.67.42-1.36,1.25s-1.33,1.64-1.89,2.41h-.94l-.31-20.82h1a32.42,32.42,0,0,0,2.4,5.49,46.09,46.09,0,0,0,3.19,5,28.06,28.06,0,0,0,3.67,4.14,18.34,18.34,0,0,0,3.71,2.72,31.17,31.17,0,0,0,4.71,1.88,18.37,18.37,0,0,0,5.65.94q7.74,0,12.56-4.24t4.81-11.45a12.87,12.87,0,0,0-.94-5.13,12,12,0,0,0-2.56-3.82,15.67,15.67,0,0,0-3.82-2.77,42.38,42.38,0,0,0-4.71-2.1c-1.68-.62-3.14-1.15-4.4-1.57l-3.5-1.2c-1.09-.38-2.2-.77-3.35-1.15s-2.53-.89-4.14-1.52a23,23,0,0,1-5.23-2.88,21.26,21.26,0,0,1-4.39-4.29,21.74,21.74,0,0,1-3-5.44,17.38,17.38,0,0,1-1.15-6.33,21.26,21.26,0,0,1,2.07-9.73,19.8,19.8,0,0,1,5.54-6.8,23.22,23.22,0,0,1,8-4,34.51,34.51,0,0,1,9.57-1.31,36,36,0,0,1,8.06.78,32.65,32.65,0,0,1,5.49,1.73,18.85,18.85,0,0,1,3.25,1.73,7.25,7.25,0,0,0,1.2.78c.21,0,.64-.42,1.31-1.25s1.27-1.68,1.83-2.51h1.15v19.35H220a42.91,42.91,0,0,0-3.24-6.85,31.2,31.2,0,0,0-4.61-6.07,22.2,22.2,0,0,0-6-4.34,16.36,16.36,0,0,0-7.43-1.68,19.53,19.53,0,0,0-6.13.95,14.23,14.23,0,0,0-5,2.82,13,13,0,0,0-3.35,4.66,15.81,15.81,0,0,0-1.2,6.33A12,12,0,0,0,186.4,191a23.69,23.69,0,0,0,8.66,5.34c1.39.56,2.7,1.05,3.92,1.47s2.42.82,3.6,1.2,2.38.78,3.6,1.2,2.49.88,3.81,1.36a24.38,24.38,0,0,1,11,7.59,21.28,21.28,0,0,1,1.88,21.4Z"/><path class="cls-2" d="M181.33,168.62a46,46,0,0,0-8.33,6.72,103.92,103.92,0,0,0-7.71,8.78q-3.78,4.81-8,9.56,1.47,1.86,3.36,4.29a63.24,63.24,0,0,0,4.72,5.33,31,31,0,0,0,5.5,4.55,12.61,12.61,0,0,0,6.87,1.75,9.3,9.3,0,0,0,3.93-.83,16.64,16.64,0,0,0,3.41-2.06,20.69,20.69,0,0,0,2.83-2.69,18.24,18.24,0,0,0,2-2.69l.95.42a19.16,19.16,0,0,1-2.68,4.7,28.25,28.25,0,0,1-4.66,4.91,24.55,24.55,0,0,1-6.14,3.72,18,18,0,0,1-7.08,1.45,16.94,16.94,0,0,1-6.39-1.19,21.8,21.8,0,0,1-5.51-3.26,34.12,34.12,0,0,1-4.77-4.7,53.07,53.07,0,0,1-4-5.43,36.77,36.77,0,0,1-3.78,4.45,35.56,35.56,0,0,1-5.61,4.65,31.44,31.44,0,0,1-7.07,3.56A23.8,23.8,0,0,1,125,216a25.29,25.29,0,0,1-8.7-1.4,17.94,17.94,0,0,1-6.51-3.92,17.52,17.52,0,0,1-4-5.95,18.29,18.29,0,0,1-1.42-7.13,17.6,17.6,0,0,1,1.84-8A24.82,24.82,0,0,1,111,183a39.77,39.77,0,0,1,6.66-5.28,79.83,79.83,0,0,1,7.23-4.08q-2.31-2.37-4.3-4.29a28.25,28.25,0,0,1-3.46-4,18.42,18.42,0,0,1-2.35-4.54,17.35,17.35,0,0,1-.9-5.9,12.33,12.33,0,0,1,1.63-6.25,16.7,16.7,0,0,1,4.19-4.86,20.55,20.55,0,0,1,5.77-3.15,18.92,18.92,0,0,1,12-.31,15.67,15.67,0,0,1,4.87,2.43,12.64,12.64,0,0,1,3.51,4.08,11.86,11.86,0,0,1,1.37,5.79,12.31,12.31,0,0,1-1.47,6,22.15,22.15,0,0,1-3.41,4.7,24.76,24.76,0,0,1-3.93,3.36c-1.33.89-2.34,1.55-3,2a59.78,59.78,0,0,1,6,5.22q2.72,2.75,5.34,5.63,2.94,3.31,5.4,6.72t4.25,6.31q2.42-3,4.56-6t3.77-5.68a37.43,37.43,0,0,0,2.57-4.91,9.77,9.77,0,0,0,.95-3.57,4.84,4.84,0,0,0-1.21-3.51,7.36,7.36,0,0,0-3.2-1.86,18.74,18.74,0,0,0-4.4-.78c-1.61-.1-3.22-.19-4.82-.26v-1.24l36.59-.82v1.24A24.45,24.45,0,0,0,181.33,168.62Zm-35,28c-.84-1.2-1.69-2.38-2.57-3.51s-1.81-2.31-2.83-3.52-2.15-2.56-3.4-4.08c-.7-.83-1.56-1.76-2.57-2.79s-2.07-2-3.15-3-2.13-2-3.14-2.84l-2.57-2.28a41.49,41.49,0,0,0-3.67,3.41,30.94,30.94,0,0,0-3.46,4.34,23.48,23.48,0,0,0-2.57,5.22,17.74,17.74,0,0,0-1,5.95,16.61,16.61,0,0,0,1.05,5.89,14.53,14.53,0,0,0,3,4.91,14.19,14.19,0,0,0,4.72,3.31,14.84,14.84,0,0,0,6,1.18,29.16,29.16,0,0,0,5.76-.51,21.64,21.64,0,0,0,4.67-1.5,22.14,22.14,0,0,0,4.14-2.48q2-1.5,4.19-3.46C148,199.23,147.15,197.84,146.31,196.63ZM138.92,150a14,14,0,0,0-1.94-4.13,10.79,10.79,0,0,0-3-2.95,7.14,7.14,0,0,0-3.88-1.13,6.15,6.15,0,0,0-3.25.82,7,7,0,0,0-2.2,2.07,9.46,9.46,0,0,0-1.26,2.69,9.66,9.66,0,0,0-.42,2.69,16.71,16.71,0,0,0,.63,5.16,15.41,15.41,0,0,0,2.2,4,26.32,26.32,0,0,0,3.83,4.29l4.87,4.28a18.09,18.09,0,0,0,3.94-5.78,19.82,19.82,0,0,0,1.2-7.34A16.46,16.46,0,0,0,138.92,150Z"/><path class="cls-2" d="M46.53,136.29l-4.17,17.46-.29-.06a6,6,0,0,0,0-1.42,2.87,2.87,0,0,0-.47-1.18,1.21,1.21,0,0,0-.45-.35c-.2-.11-.44-.22-.72-.34a6.83,6.83,0,0,0-.87-.31c-.31-.1-.62-.18-.92-.25l-1.08-.28L36,149.17l-1.67-.41-1.65-.4L27.13,147c-.34-.08-.69-.16-1.06-.23s-.71-.14-1-.19a6,6,0,0,0-.9-.07,1.23,1.23,0,0,0-.62.14,2,2,0,0,0-.81.77c-.16.31-.34.7-.54,1.2l-.29-.07,3.77-15.75,5.17-.81.08.32A14.17,14.17,0,0,0,26,135.75a6.75,6.75,0,0,0-.83,1.7,26.4,26.4,0,0,0-.93,3.15c-.1.4-.19.82-.26,1.25s-.11.76-.12,1c.29.11.91.29,1.86.55s2,.53,3.3.83l1.82.44c.5.12.9.21,1.22.27l.73.16.31.08c0-.1.07-.29.14-.57s.14-.62.21-1,.13-.76.19-1.13a8.25,8.25,0,0,0,.1-1,5.53,5.53,0,0,0-.2-1.56,3.19,3.19,0,0,0-.61-1.12,4.08,4.08,0,0,0-1-.84,11.9,11.9,0,0,0-1.35-.73l.08-.35,9,2.15-.08.35a10.1,10.1,0,0,0-2,.24,5.24,5.24,0,0,0-1.69.64,3.92,3.92,0,0,0-.92.94,4.74,4.74,0,0,0-.67,1.43l-.22.7-.15.57-.13.57c0,.19-.11.43-.18.74a11.12,11.12,0,0,0,1.15.34l1.6.38.86.2,1,.23c.3.08.59.14.87.2l.7.15c.62.13,1.2.23,1.76.31a2.82,2.82,0,0,0,1.29,0c.3-.11.59-.47.86-1.09a13.22,13.22,0,0,0,.68-2.07c.07-.33.16-.74.26-1.25a13.12,13.12,0,0,0,.24-1.62,6,6,0,0,0-.61-3.5A10.28,10.28,0,0,0,43,135.74a19.6,19.6,0,0,0-1.77-1.89l.17-.29Z"/><path class="cls-2" d="M42.28,111.71a5.54,5.54,0,0,1,1.08,1.45,5.62,5.62,0,0,1,.55,1.68,7.31,7.31,0,0,1,.12,1.73,9.58,9.58,0,0,1-.27,1.79c-.15.62-.32,1.23-.52,1.84s-.42,1.18-.65,1.74L42,123.41l1.49.62,1.05.44.86.34.86.34c.58.23,1.09.41,1.51.57a2.16,2.16,0,0,0,1.15.13,2.58,2.58,0,0,0,1.06-.54,4.33,4.33,0,0,0,1.13-1.57l.27.11-3.62,8.67-.27-.11a8.1,8.1,0,0,0,.22-1.44,2.27,2.27,0,0,0-.24-1.24,1.42,1.42,0,0,0-.4-.43,5.78,5.78,0,0,0-.68-.42l-.84-.43c-.3-.15-.59-.28-.88-.4l-1-.44-1.4-.62-1.58-.68-1.57-.65-5.28-2.21-1-.39c-.34-.13-.66-.25-1-.35a6.68,6.68,0,0,0-.87-.2,1.24,1.24,0,0,0-.63,0,2.24,2.24,0,0,0-1,.8c-.28.38-.55.8-.83,1.26l-.27-.11c.05-.11.14-.33.27-.65s.31-.75.49-1.22.39-1,.62-1.5.44-1.08.65-1.62.42-1,.62-1.51.37-.89.51-1.22a26.43,26.43,0,0,1,1.49-3.09,8,8,0,0,1,1.94-2.25,5.92,5.92,0,0,1,2.67-1.2,5.28,5.28,0,0,1,3.14.39A5.12,5.12,0,0,1,42.28,111.71Zm-6.16,1.42a5.5,5.5,0,0,0-2.71,1.33,5.57,5.57,0,0,0-1,1.21,12.61,12.61,0,0,0-.74,1.47c-.15.38-.26.68-.32.9s-.11.39-.14.53a1.8,1.8,0,0,1,.25.18,1.69,1.69,0,0,0,.28.2l.51.28.94.45c.62.28,1.38.62,2.28,1l2.65,1.12,2.28,1,1.19.5c.31-.74.57-1.45.8-2.12a7,7,0,0,0,.39-2,5.42,5.42,0,0,0-.86-3.47,5.8,5.8,0,0,0-2.69-2.21A5.37,5.37,0,0,0,36.12,113.13Z"/><path class="cls-2" d="M56.14,113.8l-.26-.14a5.38,5.38,0,0,0,.35-1.38,2.72,2.72,0,0,0-.13-1.3,1.12,1.12,0,0,0-.32-.44,7.27,7.27,0,0,0-.6-.49c-.24-.17-.5-.34-.77-.51l-.82-.48-1-.57-1.32-.8-1.48-.86L48.35,106l-5-2.85-.91-.53c-.31-.17-.6-.32-.88-.45a5.58,5.58,0,0,0-.78-.3,1.25,1.25,0,0,0-.62,0,2.26,2.26,0,0,0-1.13.52,5.63,5.63,0,0,0-1,1l-.25-.15,4.37-7.61.25.15a7.28,7.28,0,0,0-.37,1.31,1.89,1.89,0,0,0,.27,1.41,3,3,0,0,0,1,.87l1.23.75,1.25.74,1.25.73,1.32.76,1.45.84,5.75,3.3c.49.28,1,.55,1.44.79a2.06,2.06,0,0,0,1.1.33,2.25,2.25,0,0,0,1.22-.58,6.41,6.41,0,0,0,1-1l.26.15Z"/><path class="cls-2" d="M62.45,81.2a5.55,5.55,0,0,1,.68,1.67,5.83,5.83,0,0,1,.12,1.77,8.49,8.49,0,0,1-.32,1.71A9.5,9.5,0,0,1,62.22,88c-.3.55-.62,1.1-1,1.64s-.7,1-1.06,1.53-.68.89-1,1.26l1.29,1,.91.69c.26.21.51.39.74.55s.48.35.75.55l1.32.92a2.1,2.1,0,0,0,1.09.42,2.49,2.49,0,0,0,1.15-.26A4.33,4.33,0,0,0,68,95.05l.23.18-5.67,7.49-.23-.18a8.69,8.69,0,0,0,.57-1.34,2.2,2.2,0,0,0,.07-1.26,1.27,1.27,0,0,0-.27-.51,6,6,0,0,0-.56-.58c-.21-.2-.45-.41-.7-.63l-.75-.61-.89-.68-1.21-1c-.43-.35-.89-.7-1.35-1l-1.36-1-4.56-3.45c-.28-.22-.57-.43-.87-.64s-.57-.4-.85-.57a5,5,0,0,0-.79-.41,1.23,1.23,0,0,0-.62-.13,2.23,2.23,0,0,0-1.19.52q-.54.45-1.11,1l-.24-.18.43-.56.77-1,1-1.31c.36-.47.71-.93,1.05-1.4s.66-.9,1-1.31l.79-1.05a28.1,28.1,0,0,1,2.23-2.62,7.68,7.68,0,0,1,2.44-1.69,5.94,5.94,0,0,1,2.88-.5,5.81,5.81,0,0,1,4.3,2.63ZM56.13,81a5.51,5.51,0,0,0-3,.6,5.89,5.89,0,0,0-1.25.93,11,11,0,0,0-1.09,1.24,7.08,7.08,0,0,0-.54.79l-.27.47a2,2,0,0,1,.2.25c.06.07.13.16.23.26a4.45,4.45,0,0,0,.42.39l.79.68,2,1.54,2.29,1.75,2,1.48,1,.78c.49-.64.92-1.25,1.31-1.84a7.89,7.89,0,0,0,.87-1.81,5.56,5.56,0,0,0,0-3.58,5.86,5.86,0,0,0-2-2.8A5.37,5.37,0,0,0,56.13,81Z"/><path class="cls-2" d="M85.61,76.6l-.19-.21a6,6,0,0,0,1.06-1.53,1.93,1.93,0,0,0,.25-1.16,1.16,1.16,0,0,0-.16-.33c-.1-.15-.22-.31-.37-.5s-.3-.38-.46-.57l-.49-.55c-.42-.49-.86-1-1.33-1.49s-.92-1-1.33-1.44l-1.11-1.21-.7-.76L72.26,74.7l4.27,4.64c.38.42.76.81,1.13,1.19a2.08,2.08,0,0,0,1,.64,2.17,2.17,0,0,0,1.25-.11A4.35,4.35,0,0,0,81,80.44l.2.22-6.37,5.86-.2-.22a6,6,0,0,0,.77-1.24,2.66,2.66,0,0,0,.29-1.21,1.2,1.2,0,0,0-.19-.48,5,5,0,0,0-.44-.65c-.18-.24-.37-.49-.59-.75s-.43-.52-.64-.75-.44-.47-.75-.83l-1-1.15c-.37-.42-.75-.84-1.15-1.27l-1.15-1.26-3.88-4.2-.71-.78c-.24-.26-.47-.49-.7-.7a6.57,6.57,0,0,0-.66-.51,1.28,1.28,0,0,0-.58-.24,2.35,2.35,0,0,0-1.23.15,6.36,6.36,0,0,0-1.21.7l-.2-.21L67,65l.2.21c-.17.22-.35.46-.53.73a3.16,3.16,0,0,0-.38.84,2.17,2.17,0,0,0,0,1,2.42,2.42,0,0,0,.54,1l1.46,1.66,1.53,1.68,1.27,1.38.74.8,8.53-7.85-1.16-1.25-1-1.12-1-1.1c-.35-.38-.74-.8-1.2-1.26l-.83-.8a2.28,2.28,0,0,0-.88-.54,2.23,2.23,0,0,0-1.55.09,6.85,6.85,0,0,0-1.14.76l-.2-.22,6.5-6,.2.22a4.6,4.6,0,0,0-.75,1.22,2.09,2.09,0,0,0-.12,1.34,1.79,1.79,0,0,0,.25.54c.14.2.3.42.49.66s.4.47.61.7l.62.67L82.58,64c.49.53.94,1,1.33,1.45s.77.83,1.16,1.25L86.23,68l1.32,1.42c.39.41.75.79,1.1,1.12a2.15,2.15,0,0,0,.82.57A2,2,0,0,0,90.79,71,5.86,5.86,0,0,0,92,70.29l.2.21Z"/><path class="cls-2" d="M105.22,62.15l-.16-.24.33-.28a3.82,3.82,0,0,0,.49-.55,2.2,2.2,0,0,0,.33-.69.89.89,0,0,0-.13-.72,4,4,0,0,0-.59-.65c-.31-.28-.7-.61-1.17-1l-1.59-1.27c-.59-.46-1.21-.93-1.87-1.42l-6.61,4.15c.15.78.29,1.53.41,2.25l.39,2.16a7.44,7.44,0,0,0,.67,2.22.89.89,0,0,0,.53.41,1.76,1.76,0,0,0,.73,0,3.37,3.37,0,0,0,.79-.23c.27-.1.52-.21.76-.31l.15.25-5.29,3.32-.17-.28a3.14,3.14,0,0,0,.88-1,2.75,2.75,0,0,0,.31-.71,6.33,6.33,0,0,0,0-1.17,20.06,20.06,0,0,0-.23-2.53c-.14-1-.31-2.12-.5-3.39s-.39-2.56-.6-3.9-.42-2.68-.64-4-.43-2.61-.61-3.79l-.59-.39a5.39,5.39,0,0,0,.51-1,5.45,5.45,0,0,0,.27-1,5.69,5.69,0,0,0,.1-.86,4.6,4.6,0,0,0,0-.63l.2-.12,3.92,3,3.57,2.73,3.31,2.55,3.18,2.42c.51.4.94.72,1.32,1l1.25.82.45.21a4.1,4.1,0,0,0,.78.22,3.26,3.26,0,0,0,1,0,2.9,2.9,0,0,0,1.14-.4l.18.3Zm-12.71-13q.06.42.21,1.29c.1.58.21,1.3.35,2.13s.29,1.79.48,2.84.38,2.19.6,3.41l6.19-3.88-2.26-1.7-2.2-1.62L94,50.19Z"/><path class="cls-2" d="M126.31,30.15a2.5,2.5,0,0,0-.47,1.54,5,5,0,0,0,.35,1.61l.83,2.41c.28.79.61,1.73,1,2.8s.83,2.22,1.32,3.44l.69,1.74c.25.64.52,1.29.79,2s.54,1.31.8,2l.7,1.77a.24.24,0,0,1-.17.35.79.79,0,0,1-.6-.07l-6.18-3.23-5.33-2.82-5-2.62q-2.43-1.26-5.11-2.6l4.58,11.5c.37.93.72,1.75,1.07,2.48a4.73,4.73,0,0,0,1,1.53,2,2,0,0,0,1.31.56,6.17,6.17,0,0,0,1.94-.24l.11.27-6.71,2.67-.11-.28a5.31,5.31,0,0,0,1.18-.86,2.34,2.34,0,0,0,.69-1.27,4.08,4.08,0,0,0-.18-1.88c-.23-.78-.52-1.69-.9-2.74-.28-.8-.61-1.73-1-2.8s-.85-2.22-1.33-3.43c-.21-.53-.39-1-.52-1.31l-.4-1-.41-1c-.14-.36-.33-.8-.55-1.32a3.55,3.55,0,0,0-.9-1.15,3,3,0,0,0-1-.51,2.86,2.86,0,0,0-1.05-.05,7.26,7.26,0,0,0-1,.18l-.11-.27,5.54-2.2,18.93,10-3.69-9.27c-.29-.72-.57-1.41-.85-2.07a5.56,5.56,0,0,0-.87-1.47,2.75,2.75,0,0,0-1.47-.86,5.17,5.17,0,0,0-2.26.13l-.11-.27,6.76-2.69.11.27A4.42,4.42,0,0,0,126.31,30.15Z"/><path class="cls-2" d="M151.36,24.28a4.44,4.44,0,0,0-.91,1,7.36,7.36,0,0,0-.71,1.28c-.21.48-.44,1-.67,1.63-.16.42-.38,1-.66,1.68s-.58,1.44-.87,2.2-.58,1.48-.86,2.18-.49,1.24-.65,1.63l1.18,5.78c.11.56.24,1.09.37,1.61a2.21,2.21,0,0,0,.5,1.06,2.09,2.09,0,0,0,1.29.6,13.39,13.39,0,0,0,1.39.05l.06.28L142,47l-.05-.29a5.8,5.8,0,0,0,1.25-.54,3,3,0,0,0,1-1.14,1.09,1.09,0,0,0,.11-.54,7.91,7.91,0,0,0,0-.8c0-.29-.07-.6-.13-.93s-.12-.64-.18-.95c-.09-.54-.21-1.18-.35-1.92s-.32-1.64-.53-2.69l-.46-.48-.93-1-1.23-1.32L139.1,33l-1.22-1.29c-.38-.41-.7-.73-.95-1l-1.3-1.32a8.2,8.2,0,0,0-1.14-1,4.82,4.82,0,0,0-1.07-.59,2,2,0,0,0-1.08-.11l-.06-.29L141,25.68l.06.29-.85.26a4.85,4.85,0,0,0-.76.35,1.69,1.69,0,0,0-.54.47.82.82,0,0,0-.11.64,2.81,2.81,0,0,0,.65,1c.38.45.78.9,1.19,1.36.28.3.62.66,1,1.1s.81.88,1.27,1.35L144.29,34c.47.5.92,1,1.33,1.44l.63-1.59c.25-.63.5-1.29.76-1.95l.72-1.9c.22-.6.39-1.07.5-1.41q.11-.27.21-.6c.07-.23.14-.46.2-.7a6.26,6.26,0,0,0,.14-.73,2,2,0,0,0,0-.66,1.1,1.1,0,0,0-.37-.67,1.53,1.53,0,0,0-.68-.28,3.69,3.69,0,0,0-.83-.06L146,25l-.06-.28,6.64-1.36.06.29A4.41,4.41,0,0,0,151.36,24.28Z"/><path class="cls-2" d="M188.92,30.76a13.09,13.09,0,0,0-2.41,1.81A29.46,29.46,0,0,0,184.26,35c-.74.88-1.51,1.75-2.33,2.62l.89,1.25a16.53,16.53,0,0,0,1.27,1.56,8,8,0,0,0,1.49,1.35,3.32,3.32,0,0,0,1.9.57,2.39,2.39,0,0,0,1.1-.19,4.11,4.11,0,0,0,1-.55,5.22,5.22,0,0,0,.82-.73,5,5,0,0,0,.59-.74l.26.13a5.72,5.72,0,0,1-.8,1.3,8.28,8.28,0,0,1-1.36,1.35,6.58,6.58,0,0,1-1.76,1,4.86,4.86,0,0,1-2,.34,4.69,4.69,0,0,1-1.78-.41,5.79,5.79,0,0,1-1.5-1,9.92,9.92,0,0,1-1.28-1.38,16.77,16.77,0,0,1-1.06-1.58,10.94,10.94,0,0,1-1.1,1.22A10.55,10.55,0,0,1,177,42.36a9.33,9.33,0,0,1-2,.93,6.53,6.53,0,0,1-2.3.31,7,7,0,0,1-2.42-.49,5,5,0,0,1-1.77-1.18,5.08,5.08,0,0,1-1.07-1.73,5.45,5.45,0,0,1-.32-2,5.16,5.16,0,0,1,.6-2.25,7.38,7.38,0,0,1,1.42-1.83A11.36,11.36,0,0,1,171,32.66a20.59,20.59,0,0,1,2.07-1.08c-.41-.47-.8-.89-1.15-1.26a8.22,8.22,0,0,1-.93-1.17,5.31,5.31,0,0,1-.61-1.32,5,5,0,0,1-.19-1.68,3.52,3.52,0,0,1,.53-1.75A4.73,4.73,0,0,1,172,23.06a5.69,5.69,0,0,1,1.65-.83,5.39,5.39,0,0,1,1.81-.25,5.45,5.45,0,0,1,1.55.29,4.71,4.71,0,0,1,1.34.74,3.46,3.46,0,0,1,.93,1.2,3.28,3.28,0,0,1,.32,1.65,3.53,3.53,0,0,1-.47,1.69,6.34,6.34,0,0,1-1,1.3,7,7,0,0,1-1.13.91c-.38.24-.67.41-.87.52a18.26,18.26,0,0,1,1.61,1.55c.49.54,1,1.09,1.43,1.65a21.46,21.46,0,0,1,1.44,2c.44.66.81,1.27,1.12,1.83.47-.55.92-1.1,1.34-1.65s.79-1.08,1.12-1.57a11.85,11.85,0,0,0,.77-1.37,2.84,2.84,0,0,0,.3-1,1.35,1.35,0,0,0-.3-1,2,2,0,0,0-.87-.56,5.59,5.59,0,0,0-1.22-.27q-.67-.08-1.35-.12v-.36l10.24.16v.35A6.77,6.77,0,0,0,188.92,30.76Zm-10.1,7.57c-.22-.35-.45-.69-.68-1s-.48-.68-.75-1-.58-.75-.91-1.2c-.19-.24-.42-.51-.69-.82s-.55-.6-.84-.89l-.85-.84-.7-.68a13.83,13.83,0,0,0-1.06.93,8.43,8.43,0,0,0-1,1.2,6.5,6.5,0,0,0-.78,1.45,5,5,0,0,0-.34,1.68,4.75,4.75,0,0,0,.23,1.68,4.12,4.12,0,0,0,.79,1.42,4,4,0,0,0,3,1.39,7.44,7.44,0,0,0,1.61-.08,5.81,5.81,0,0,0,1.32-.38,6.07,6.07,0,0,0,1.19-.66c.38-.27.79-.58,1.21-.93C179.27,39.09,179,38.68,178.82,38.33ZM177.26,25a4,4,0,0,0-.5-1.19,2.74,2.74,0,0,0-.82-.87,2,2,0,0,0-1.07-.37,1.81,1.81,0,0,0-.92.2,1.93,1.93,0,0,0-.63.57,2.5,2.5,0,0,0-.39.74,2.86,2.86,0,0,0-.14.76,4.51,4.51,0,0,0,.12,1.48,4.26,4.26,0,0,0,.57,1.16,8.23,8.23,0,0,0,1,1.26L175.82,30a5,5,0,0,0,1.16-1.6,5.58,5.58,0,0,0,.42-2.07A4.67,4.67,0,0,0,177.26,25Z"/><path class="cls-2" d="M217.14,47.38a5.69,5.69,0,0,1-2,1.39,6.69,6.69,0,0,1-2.65.47,11.94,11.94,0,0,1-3.07-.49,13.82,13.82,0,0,1-2.32-.85,10.49,10.49,0,0,1-1.52-.87,6.57,6.57,0,0,1-.84-.72c-.18-.19-.3-.3-.36-.31s-.21.06-.46.23-.48.34-.69.5l-.26-.07L204.45,41l.28.08a9.43,9.43,0,0,0,.22,1.67,14.94,14.94,0,0,0,.47,1.6,8.65,8.65,0,0,0,.67,1.4,5.23,5.23,0,0,0,.79,1,8.33,8.33,0,0,0,1.13.87,5.05,5.05,0,0,0,1.45.69,5.14,5.14,0,0,0,3.71-.17,4.08,4.08,0,0,0,2.18-2.72,3.54,3.54,0,0,0,.14-1.45,3.23,3.23,0,0,0-.39-1.23,4.42,4.42,0,0,0-.82-1,11.44,11.44,0,0,0-1.1-.93c-.41-.3-.76-.55-1.07-.76l-.85-.6-.81-.57c-.28-.19-.62-.43-1-.73A6.57,6.57,0,0,1,208.26,37a5.86,5.86,0,0,1-.85-1.5,6.11,6.11,0,0,1-.4-1.7,5,5,0,0,1,.18-1.8,6,6,0,0,1,1.31-2.46,5.52,5.52,0,0,1,2-1.41,6.71,6.71,0,0,1,2.48-.46,9.71,9.71,0,0,1,2.68.39,10.19,10.19,0,0,1,2.11.83,9,9,0,0,1,1.35.89,5.72,5.72,0,0,1,.74.72,2.21,2.21,0,0,0,.26.3q.09,0,.45-.24c.24-.17.47-.35.69-.53l.31.09-1.5,5.21-.31-.08a12.08,12.08,0,0,0-.34-2.1,8.68,8.68,0,0,0-.78-2,6.12,6.12,0,0,0-1.27-1.64,4.59,4.59,0,0,0-1.87-1,5.42,5.42,0,0,0-1.72-.22,4.16,4.16,0,0,0-1.58.37,3.65,3.65,0,0,0-1.26,1,4.36,4.36,0,0,0-.81,1.61,3.36,3.36,0,0,0,.21,2.66A6.68,6.68,0,0,0,212.29,36c.33.25.64.49.94.69l.87.61c.29.19.59.39.88.6l.92.66a6.86,6.86,0,0,1,2.39,2.9,5.43,5.43,0,0,1,.09,3.64A5.5,5.5,0,0,1,217.14,47.38Z"/><path class="cls-2" d="M247.32,47.34a10.29,10.29,0,0,0,0-1.23c0-.44-.07-.85-.12-1.25s-.12-.77-.19-1.12a5.31,5.31,0,0,0-.23-.81,3.11,3.11,0,0,0-.86-1.28,8,8,0,0,0-1.56-1l-.86-.44-.73-.37-.77-.37L241,39c-.21.44-.51,1-.88,1.79s-.76,1.54-1.17,2.37-.79,1.64-1.19,2.45l-1,2L234,53.48c-.25.51-.47,1-.67,1.48a2.11,2.11,0,0,0-.23,1.11,2.21,2.21,0,0,0,.74,1.34,13.62,13.62,0,0,0,1.15,1l-.13.26-8.58-4.16.13-.26a8.87,8.87,0,0,0,1.45.38,3,3,0,0,0,1.66-.27,1,1,0,0,0,.41-.34c.14-.18.29-.4.44-.64s.3-.51.46-.8.3-.59.43-.87.28-.57.49-1l.68-1.33c.24-.49.5-1,.75-1.53l.73-1.5,4.24-8.74-1-.47-.76-.38-.74-.33-.89-.42a6.39,6.39,0,0,0-1.76-.56,3.39,3.39,0,0,0-1.56.16,4,4,0,0,0-.76.31c-.3.16-.63.33-1,.53a11.7,11.7,0,0,0-1,.65,6.46,6.46,0,0,0-.91.77l-.2-.2L230.76,33c.36.28.7.54,1,.76a16.54,16.54,0,0,0,1.44.82c.66.35,1.25.65,1.78.91l1.52.76L238,37l1.77.86,1.74.84,1.54.73,1.54.72c.53.24,1.13.53,1.8.85a9.43,9.43,0,0,0,1.51.56c.42.1.86.19,1.32.26l-1.65,5.56Z"/><path class="cls-2" d="M270,57.46a4.23,4.23,0,0,0-1.33,0,6.63,6.63,0,0,0-1.42.34c-.5.17-1.05.37-1.66.61-.41.16-1,.38-1.68.64l-2.21.85-2.19.84-1.65.62-3.46,4.77c-.33.46-.64.92-.94,1.37a2.19,2.19,0,0,0-.43,1.08,2,2,0,0,0,.42,1.36c.3.38.6.74.9,1l-.17.24-7.31-5.31.17-.24a6.05,6.05,0,0,0,1.25.56,3,3,0,0,0,1.52,0,.92.92,0,0,0,.47-.27c.18-.17.37-.36.57-.58s.39-.46.59-.72.4-.52.58-.78c.34-.43.73-1,1.19-1.55s1-1.34,1.62-2.21c0-.07,0-.29,0-.66s.06-.82.1-1.36.09-1.14.15-1.8.1-1.3.15-1.93.09-1.23.13-1.78.06-1,.08-1.36c0-.67.06-1.29.09-1.85a8.18,8.18,0,0,0,0-1.51,5.19,5.19,0,0,0-.29-1.19,2,2,0,0,0-.65-.87l.17-.24,7.2,5.22-.17.24c-.25-.16-.51-.31-.77-.45a4.57,4.57,0,0,0-.77-.33,1.8,1.8,0,0,0-.71-.07.78.78,0,0,0-.54.35,2.68,2.68,0,0,0-.34,1.18c-.07.59-.14,1.19-.2,1.8,0,.41-.07.91-.13,1.48s-.1,1.2-.15,1.85-.09,1.33-.14,2-.1,1.34-.16,2c.42-.15,1-.35,1.59-.6l1.95-.76,1.89-.75,1.39-.59.58-.25.65-.33a5.09,5.09,0,0,0,.63-.39,2,2,0,0,0,.47-.45,1,1,0,0,0,.24-.73,1.51,1.51,0,0,0-.24-.69,4.36,4.36,0,0,0-.52-.65L265.9,54l.17-.24,5.48,4-.17.24A4.51,4.51,0,0,0,270,57.46Z"/><path class="cls-2" d="M274.45,90.28,261.32,76.76l.21-.2a8.35,8.35,0,0,0,1.29.78,2.74,2.74,0,0,0,1.31.3,1.89,1.89,0,0,0,.54-.18,4.39,4.39,0,0,0,.67-.43l.74-.57a8.62,8.62,0,0,0,.71-.63l.81-.77,1.13-1L270,72.82l1.22-1.18,4.08-4L276,67c.25-.25.48-.49.67-.72a5.08,5.08,0,0,0,.49-.66,1.32,1.32,0,0,0,.22-.57,2.77,2.77,0,0,0-.22-1.33,6.17,6.17,0,0,0-.76-1.28l.21-.21,6.52,6.72-.21.2-.76-.53a3.56,3.56,0,0,0-1-.45,2.38,2.38,0,0,0-1.1,0,2.32,2.32,0,0,0-1.17.62L277.55,70l-1.22,1.14L275.1,72.3l-1.41,1.37-1.3,1.26L271.27,76c-.36.35-.74.72-1.11,1.1s-.81.81-1.29,1.27-.85.88-1.23,1.3a2.57,2.57,0,0,0-.69,1.1,1.18,1.18,0,0,0,.11.54,5.07,5.07,0,0,0,.42.78,10.67,10.67,0,0,0,.63.9,9.5,9.5,0,0,0,.76.9c.11.11.29.29.54.52s.52.5.83.77.63.55,1,.82a8.58,8.58,0,0,0,1,.65,6.74,6.74,0,0,0,2,.81,6.19,6.19,0,0,0,1.81.11,7.42,7.42,0,0,0,1.73-.37c.56-.19,1.13-.41,1.72-.65l.14.27Z"/><path class="cls-2" d="M277.66,94.7l.24-.17a5.65,5.65,0,0,0,1.11.88,2.82,2.82,0,0,0,1.24.42,1.16,1.16,0,0,0,.54-.11,6.37,6.37,0,0,0,.68-.35c.26-.15.52-.31.79-.49l.78-.55c.22-.16.52-.38.91-.64l1.27-.88,1.4-1,1.38-1,4.63-3.35.86-.62c.28-.21.54-.41.77-.61a6.56,6.56,0,0,0,.59-.59,1.47,1.47,0,0,0,.31-.55,2.37,2.37,0,0,0,0-1.24,6.32,6.32,0,0,0-.55-1.29l.24-.17L300,89.51l-.23.18a7.89,7.89,0,0,0-1-.89,1.88,1.88,0,0,0-1.4-.33,2.93,2.93,0,0,0-1.18.52l-1.19.8c-.4.29-.79.57-1.19.84s-.79.55-1.18.84l-1.24.89-1.36,1-5.37,3.89c-.46.33-.9.66-1.32,1a2.15,2.15,0,0,0-.74.87,2.09,2.09,0,0,0,0,1.35,6.45,6.45,0,0,0,.55,1.31l-.24.17Z"/><path class="cls-2" d="M294.05,121.8l-8.19-15.68.12-.2,24.95,3.72-.76-1.46-.95-1.82c-.33-.62-.64-1.22-1-1.78s-.54-1-.73-1.31a5.78,5.78,0,0,0-1.33-1.58,7.09,7.09,0,0,0-1.61-1q-.42-.16-1.11-.39c-.47-.14-1-.28-1.49-.4s-1.05-.23-1.57-.32-1-.15-1.4-.18l0-.34,6.53-1c.11.25.33.7.66,1.34s.71,1.42,1.17,2.31.94,1.84,1.48,2.86l1.62,3.1c.53,1,1,2,1.51,2.88s.88,1.7,1.22,2.34l-.12.16-24.91-3.7c.44.88.84,1.66,1.2,2.36l1.1,2.1c.16.3.36.67.62,1.12s.54.91.86,1.39a7.7,7.7,0,0,0,3.66,2.9,16.44,16.44,0,0,0,5.25,1l.05.34Z"/><path class="cls-2" d="M301.94,144.55l-5.36-17.13.28-.09a6.24,6.24,0,0,0,.77,1.19,2.9,2.9,0,0,0,1,.77,1.29,1.29,0,0,0,.56.07c.23,0,.49,0,.79-.08s.59-.1.91-.17l.92-.26,1.07-.32,1.47-.43,1.65-.5,1.62-.51,5.46-1.71,1-.33c.35-.13.68-.25,1-.38a5.09,5.09,0,0,0,.81-.4,1.35,1.35,0,0,0,.47-.44,2,2,0,0,0,.29-1.08c0-.34-.07-.78-.15-1.3l.28-.09,4.84,15.46-4,3.35-.22-.24a14.31,14.31,0,0,0,2.47-5.45,6.92,6.92,0,0,0-.16-1.88,25.32,25.32,0,0,0-.81-3.19c-.12-.4-.27-.8-.42-1.21a7.79,7.79,0,0,0-.39-.88c-.31.06-.93.22-1.88.48s-2,.59-3.26,1l-1.79.56-1.18.38-.71.24-.31.1c0,.09.09.28.17.56s.2.6.33,1,.27.71.41,1.06a6.7,6.7,0,0,0,.42.88,5.07,5.07,0,0,0,1,1.23,3.35,3.35,0,0,0,1.09.66,4.34,4.34,0,0,0,1.28.21,12,12,0,0,0,1.54-.07l.1.34-8.82,2.76-.1-.34a9.54,9.54,0,0,0,1.63-1.26,5.42,5.42,0,0,0,1.13-1.41,3.94,3.94,0,0,0,.3-1.28,4.9,4.9,0,0,0-.15-1.57l-.18-.71c0-.19-.1-.38-.16-.57s-.11-.35-.17-.56l-.23-.72a8.37,8.37,0,0,0-1.17.3l-1.56.49-.84.26-1,.3-.85.28c-.26.1-.49.17-.68.23-.59.21-1.14.42-1.66.63a2.76,2.76,0,0,0-1.09.69,1.83,1.83,0,0,0-.18,1.38,11.48,11.48,0,0,0,.48,2.13c.1.31.23.72.41,1.21s.38,1,.62,1.51a6.36,6.36,0,0,0,.95,1.51,6,6,0,0,0,1.37,1.17,9.3,9.3,0,0,0,1.87.91,18.92,18.92,0,0,0,2.48.71v.34Z"/><path class="cls-2" d="M44.72,212a4.22,4.22,0,0,0-.95-.77,6.56,6.56,0,0,0-1.25-.57c-.47-.16-1-.33-1.58-.51l-1.62-.51L37.2,209l-2.11-.65-1.57-.5-5.47,1.39c-.53.13-1,.28-1.53.43a2.23,2.23,0,0,0-1,.51,1.87,1.87,0,0,0-.53,1.2q0,.67,0,1.26l-.27.07-2-7.91.27-.07a5.74,5.74,0,0,0,.55,1.11,2.81,2.81,0,0,0,1.13.84.91.91,0,0,0,.51.08c.23,0,.48,0,.76-.09s.58-.1.89-.17l.9-.21c.51-.12,1.12-.25,1.82-.43s1.55-.37,2.55-.63l.43-.44c.25-.24.55-.55.92-.9l1.22-1.19L36,201.42l1.19-1.18.9-.91,1.22-1.26A8.47,8.47,0,0,0,40.2,197a4.58,4.58,0,0,0,.52-1,1.71,1.71,0,0,0,.07-1l.27-.07,2,7.78-.27.06a6.61,6.61,0,0,0-.28-.74,3.37,3.37,0,0,0-.36-.68,1.4,1.4,0,0,0-.46-.45.74.74,0,0,0-.61-.07,2.91,2.91,0,0,0-1,.65c-.42.37-.84.75-1.26,1.15s-.61.6-1,1-.81.78-1.25,1.22-.89.89-1.36,1.34-.9.89-1.32,1.29l1.53.48,1.88.57,1.83.55c.59.17,1.05.29,1.38.37l.57.16.67.14a5.71,5.71,0,0,0,.71.08,2,2,0,0,0,.62-.05,1,1,0,0,0,.63-.38,1.3,1.3,0,0,0,.24-.62,3.16,3.16,0,0,0,0-.76c0-.27,0-.53-.07-.77l.27-.07,1.51,5.93-.27.07A3.93,3.93,0,0,0,44.72,212Z"/><path class="cls-2" d="M40.2,236.65a10.49,10.49,0,0,1-3.89-.7,9.52,9.52,0,0,1-3.22-2.09,10.12,10.12,0,0,1-3-7.07,9.48,9.48,0,0,1,.72-3.72A9.88,9.88,0,0,1,33,219.84a11.76,11.76,0,0,1,7.86-3.26,10,10,0,0,1,3.86.77,9.63,9.63,0,0,1,3.15,2.21,11,11,0,0,1,2.19,3.35,9.46,9.46,0,0,1,.79,4.05,9.24,9.24,0,0,1-.91,3.67,10.21,10.21,0,0,1-2.27,3,11.58,11.58,0,0,1-3.32,2.11A10.63,10.63,0,0,1,40.2,236.65ZM46.06,231a11.19,11.19,0,0,0,2.43-2.37,7.27,7.27,0,0,0,1.32-2.82,5.4,5.4,0,0,0-2.3-5.45,7.08,7.08,0,0,0-2.91-1,11.26,11.26,0,0,0-3.4.14,16.93,16.93,0,0,0-3.47,1,15.83,15.83,0,0,0-3.23,1.81,10.49,10.49,0,0,0-2.38,2.37,6.77,6.77,0,0,0-1.18,2.77,5.22,5.22,0,0,0,.38,3,4.76,4.76,0,0,0,2,2.33,7.48,7.48,0,0,0,2.93,1,11.25,11.25,0,0,0,3.41-.1,16.06,16.06,0,0,0,3.42-1A15.43,15.43,0,0,0,46.06,231Z"/><path class="cls-2" d="M64.07,250.57a2.56,2.56,0,0,0-1.5-.11,3.67,3.67,0,0,0-.62.22c-.28.12-.59.27-.94.45s-.72.38-1.11.6-.75.44-1.12.67l-2.32,1.37-2.9,1.71-1.18.66a11.31,11.31,0,0,1-1.6.7,8.1,8.1,0,0,1-1.9.39,5.48,5.48,0,0,1-2.1-.23,6.24,6.24,0,0,1-2.16-1.22,10.5,10.5,0,0,1-2.09-2.53,10.33,10.33,0,0,1-1.35-2.95,6.09,6.09,0,0,1-.18-2.43,5.16,5.16,0,0,1,.64-2,8,8,0,0,1,1.06-1.48,7.36,7.36,0,0,1,1.14-1c.38-.27.66-.46.85-.58l1.75-1.08,2.38-1.48,3.17-2,.86-.53c.28-.18.54-.36.77-.53a6.83,6.83,0,0,0,.61-.52,1.24,1.24,0,0,0,.33-.49,2,2,0,0,0,.1-1.14,4.7,4.7,0,0,0-.4-1.2l.24-.15,4.18,6.69-.23.15c-.17-.19-.36-.39-.57-.59a2.42,2.42,0,0,0-.7-.46,2,2,0,0,0-.87-.15,2.41,2.41,0,0,0-1.05.35l-1.11.65c-.33.19-.64.38-.94.57l-1,.59-1.12.7-1.45.91-1.22.76-1,.67-1.07.69a9,9,0,0,0-2.08,1.8,6.14,6.14,0,0,0-1.17,2,4.88,4.88,0,0,0-.19,2.18,5.65,5.65,0,0,0,.86,2.25,7.85,7.85,0,0,0,1.66,2,5.07,5.07,0,0,0,1.78.95,4.9,4.9,0,0,0,1.86.15,7.56,7.56,0,0,0,1.84-.43,16,16,0,0,0,1.8-.81c.58-.32,1.15-.65,1.69-1l1.16-.73,1-.61.93-.58,1-.61,1-.62.94-.63.8-.6a3,3,0,0,0,.54-.53,2.56,2.56,0,0,0,.6-1.45,4.19,4.19,0,0,0-.43-2l.24-.15,3.48,5.57-.24.15A3.64,3.64,0,0,0,64.07,250.57Z"/><path class="cls-2" d="M61.35,277.2c0-.24,0-.41,0-.51s0-.24.07-.38a3.49,3.49,0,0,1,.15-.57c.07-.24.17-.61.31-1.11s.33-1.13.47-1.6.29-.95.42-1.42.25-1,.37-1.47.22-1.1.33-1.76a11.64,11.64,0,0,0,.14-1.67,2.84,2.84,0,0,0-.34-1.44,3.79,3.79,0,0,0-.43-.65c-.1-.12-.23-.28-.38-.48l-2.38,2.1q-1,.9-1.68,1.53l-1.12,1.06a2.06,2.06,0,0,0-.61.93,2.38,2.38,0,0,0,0,1.11,3.59,3.59,0,0,0,.79,1.56l-.21.18-5.61-6.35.21-.18a7.68,7.68,0,0,0,1.09.73,2.07,2.07,0,0,0,1.14.26,1.2,1.2,0,0,0,.52-.17,6.14,6.14,0,0,0,.64-.41l.72-.55.71-.59.81-.7,1.12-1,1.24-1.08,1.22-1.08,4.1-3.63.76-.68c.25-.24.49-.47.7-.69a7.17,7.17,0,0,0,.54-.66,1.35,1.35,0,0,0,.25-.55,2.09,2.09,0,0,0-.14-1.07,9,9,0,0,0-.6-1.08l.21-.18.72.81L69,255.32c.51.56,1,1.13,1.52,1.7s.92,1,1.23,1.38c.79.89,1.45,1.7,2,2.44a6,6,0,0,1,1.1,2.39,5.2,5.2,0,0,1-.07,2.57,5.09,5.09,0,0,1-1.62,2.38,4.5,4.5,0,0,1-1.64,1,5.1,5.1,0,0,1-1.72.26,5.82,5.82,0,0,1-1.73-.33,10.4,10.4,0,0,1-1.67-.75l-.07.06a3.3,3.3,0,0,1,0,1.14,9.81,9.81,0,0,1-.25,1.32c-.23.82-.47,1.7-.73,2.65L64.7,276a8.61,8.61,0,0,0-.33,2.84,5,5,0,0,0,.79,2.21l-.21.18Zm11.36-13.56a4.68,4.68,0,0,0,0-2.6,5.13,5.13,0,0,0-.55-1.3,7.91,7.91,0,0,0-.87-1.2c-.24-.27-.45-.49-.61-.65l-.4-.36-.25.15-.27.19-.43.34-.77.63c-.5.42-1.07.9-1.69,1.44l-1.79,1.57-1.52,1.34-.8.71a17.87,17.87,0,0,0,1.42,1.45,7.62,7.62,0,0,0,1.51,1.09,4.61,4.61,0,0,0,1.53.59,4.56,4.56,0,0,0,1.47,0,4.65,4.65,0,0,0,1.35-.44,5.72,5.72,0,0,0,1.22-.83A4.72,4.72,0,0,0,72.71,263.64Z"/><path class="cls-2" d="M96.18,286.28a26.48,26.48,0,0,0-.22-3.19,7.33,7.33,0,0,0-.65-2.33,5.54,5.54,0,0,0-1.09-1.27,21,21,0,0,0-2.11-1.76l-.5-.34c-.19-.13-.37-.26-.55-.37l-.5-.33-.34-.24a2.73,2.73,0,0,1-.25.23l-.29.28c-.1.11-.23.25-.38.43l-.55.66-1.31,1.71c-.47.62-.9,1.21-1.32,1.76L85.06,283c-.29.39-.46.63-.52.7l.39.28c.22.17.48.35.77.54l.9.58a7.2,7.2,0,0,0,.83.45,5.08,5.08,0,0,0,1.56.42,2.87,2.87,0,0,0,1.22-.19,3.36,3.36,0,0,0,1-.62c.31-.27.63-.58,1-.91l.25.19-5.36,7.28-.25-.19a14,14,0,0,0,.63-1.89,4.28,4.28,0,0,0,.14-1.8,3.56,3.56,0,0,0-.44-1.21,4.21,4.21,0,0,0-.9-1l-.53-.44c-.15-.13-.3-.24-.44-.34l-.45-.33-.57-.43-1.07,1.45c-.34.47-.68.92-1,1.35L81.36,288c-.25.36-.47.66-.66.92-.34.49-.65,1-.93,1.42a2.8,2.8,0,0,0-.47,1.14,1.53,1.53,0,0,0,.3,1,6,6,0,0,0,1.17,1.2l-.17.22-6.82-5,.17-.22a4.81,4.81,0,0,0,1.2.43,2.61,2.61,0,0,0,1.18,0,1.33,1.33,0,0,0,.46-.27c.17-.14.36-.32.56-.52s.4-.41.6-.65.38-.48.56-.72l.64-.85.9-1.17,1-1.32c.35-.46.67-.9,1-1.31l3.25-4.41.61-.84c.2-.29.38-.57.55-.85a5.12,5.12,0,0,0,.4-.76,1.37,1.37,0,0,0,.13-.59,1.79,1.79,0,0,0-.35-1,9,9,0,0,0-.79-.88l.16-.23,11.86,8.74-1.35,4.86Z"/><path class="cls-2" d="M105.7,308.82l-15-7.93.13-.25a7.14,7.14,0,0,0,1.33.29,2.46,2.46,0,0,0,1.23-.15,1.59,1.59,0,0,0,.43-.33,5.29,5.29,0,0,0,.47-.59c.16-.23.33-.47.5-.74s.32-.52.46-.78.29-.55.51-.94.45-.83.71-1.29.52-.95.78-1.45l.76-1.44,2.54-4.82c.16-.29.31-.58.46-.87a8.94,8.94,0,0,0,.4-.84,5.11,5.11,0,0,0,.26-.74,1.37,1.37,0,0,0,0-.59,2.4,2.4,0,0,0-.54-1.11,5.44,5.44,0,0,0-1-.91l.13-.24,7.47,3.94-.13.25c-.22-.08-.49-.15-.8-.24a3.17,3.17,0,0,0-1-.09,2.13,2.13,0,0,0-1,.29,2.37,2.37,0,0,0-.86.93c-.32.57-.62,1.09-.88,1.57l-.77,1.4-.77,1.43-.88,1.67c-.29.56-.57,1.07-.81,1.53l-.7,1.32-.68,1.33c-.24.47-.5,1-.8,1.54s-.51,1-.74,1.55a2.61,2.61,0,0,0-.32,1.19,1,1,0,0,0,.25.45,4.23,4.23,0,0,0,.56.57c.24.2.5.4.79.6a6.54,6.54,0,0,0,.91.56l.6.3c.28.14.59.28.93.43s.69.29,1.06.42a6.08,6.08,0,0,0,1,.28,5.34,5.34,0,0,0,3.55-.36,7.22,7.22,0,0,0,1.42-.87c.44-.35.89-.72,1.34-1.12l.19.2Z"/><path class="cls-2" d="M125.84,316.34l-15.27-5.42.09-.27a5.08,5.08,0,0,0,1.28.07,2.58,2.58,0,0,0,1.12-.34,1.21,1.21,0,0,0,.37-.4,7.05,7.05,0,0,0,.38-.65,8.49,8.49,0,0,0,.39-.8c.12-.29.23-.57.33-.85s.21-.58.37-1l.52-1.38.56-1.55.54-1.53,1.83-5.16c.12-.32.23-.65.34-1s.21-.67.29-1a6.37,6.37,0,0,0,.16-.86,1.22,1.22,0,0,0,0-.6,1.83,1.83,0,0,0-.61-.82,11.65,11.65,0,0,0-1-.62l.09-.26,13.78,4.89.15,5-.3,0a13,13,0,0,0-2.51-4.94,6.59,6.59,0,0,0-1.44-.93,22.49,22.49,0,0,0-2.74-1.15c-.35-.13-.72-.24-1.1-.35a5.8,5.8,0,0,0-.85-.19c-.13.27-.37.84-.71,1.71s-.71,1.89-1.12,3.06l-.6,1.69c-.17.46-.29.83-.39,1.13s-.17.52-.23.68l-.1.29.5.18.87.28c.33.09.66.19,1,.27a5.07,5.07,0,0,0,.85.17,4.14,4.14,0,0,0,1.43-.06,2.79,2.79,0,0,0,1.08-.48,3.93,3.93,0,0,0,.87-.86,12.91,12.91,0,0,0,.81-1.22l.3.11-3,8.33-.3-.1a9.94,9.94,0,0,0,0-2,5,5,0,0,0-.38-1.65,3.49,3.49,0,0,0-.75-1,4,4,0,0,0-1.2-.76l-.61-.26-.5-.19-.5-.18-.65-.23a10,10,0,0,0-.43,1.07c-.17.47-.34,1-.53,1.48l-.28.79-.32.9c-.1.29-.19.56-.27.82s-.16.47-.22.65c-.18.57-.34,1.11-.48,1.63a2.81,2.81,0,0,0-.11,1.23c.06.3.36.6.88.91a11,11,0,0,0,1.79.81l1.1.36a13.57,13.57,0,0,0,1.43.36,5.29,5.29,0,0,0,1.62.11,5.08,5.08,0,0,0,1.6-.4,8.73,8.73,0,0,0,1.7-.93,19.07,19.07,0,0,0,1.9-1.52l.25.18Z"/><path class="cls-2" d="M151.15,303a18.73,18.73,0,0,0-2.65,1.88l-1.24,1-1.37,1.14-1.32,1.11-1.13.95.3.75c.15.38.33.83.52,1.35s.41,1.08.65,1.67.45,1.17.67,1.71.41,1,.59,1.48.3.78.38,1c.23.61.44,1.15.64,1.63a8.89,8.89,0,0,0,.61,1.27,4.51,4.51,0,0,0,.69.92,2.56,2.56,0,0,0,.91.59l-.06.27L141,320l.06-.27.8,0a3.67,3.67,0,0,0,.82,0,1.63,1.63,0,0,0,.68-.25.94.94,0,0,0,.37-.58,2.64,2.64,0,0,0-.12-1.11c-.13-.47-.29-1-.48-1.52-.26-.74-.56-1.56-.9-2.45s-.73-1.88-1.18-3l-1.15,1-1.26,1.07-1.22,1c-.39.34-.72.64-1,.91s-.62.63-.89.95a2.61,2.61,0,0,0-.51,1,1.12,1.12,0,0,0,.09.72,2.16,2.16,0,0,0,.49.61,4.46,4.46,0,0,0,.72.47,7.71,7.71,0,0,0,.74.33l-.06.27-6.86-1.47.06-.28a6.34,6.34,0,0,0,2.4-.73,16.35,16.35,0,0,0,2.77-1.8c.33-.26.74-.58,1.22-1l1.52-1.25,1.52-1.27,1.22-1-.48-1.21c-.26-.64-.54-1.35-.85-2.15s-.63-1.58-.94-2.37-.56-1.41-.75-1.87c-.25-.61-.47-1.14-.67-1.61a10.45,10.45,0,0,0-.61-1.21,4.52,4.52,0,0,0-.7-.89,4.63,4.63,0,0,0-.94-.71l0-.27,8.45,1.82-.06.27c-.23,0-.5-.05-.8-.06a4.57,4.57,0,0,0-.85.05,1.82,1.82,0,0,0-.71.25.83.83,0,0,0-.39.57,2.23,2.23,0,0,0,.14,1.1c.15.47.33,1,.54,1.52.29.75.58,1.52.89,2.3s.66,1.73,1.09,2.84c.72-.58,1.47-1.21,2.24-1.9s1.45-1.3,2-1.81a12.38,12.38,0,0,0,.91-.95,2.67,2.67,0,0,0,.6-1,1,1,0,0,0-.11-.71,2.31,2.31,0,0,0-.49-.6,3.85,3.85,0,0,0-.7-.46q-.39-.19-.72-.33l.06-.27,6.76,1.45-.06.28A5.37,5.37,0,0,0,151.15,303Z"/><path class="cls-2" d="M152.81,322.05l0-.28a4.76,4.76,0,0,0,1.27-.22,2.76,2.76,0,0,0,1-.6,1.18,1.18,0,0,0,.25-.45,6.46,6.46,0,0,0,.19-.71,7.65,7.65,0,0,0,.16-.88c.05-.3.09-.6.13-.9s.08-.61.14-1.06.13-.93.21-1.46.14-1.07.21-1.63.14-1.11.2-1.61l.66-5.44c.05-.33.09-.66.13-1s.06-.65.07-.94a6.65,6.65,0,0,0,0-.79,1.24,1.24,0,0,0-.17-.57,2.1,2.1,0,0,0-.82-.8,5.36,5.36,0,0,0-1.19-.44l0-.28,7.87,1,0,.28a7.18,7.18,0,0,0-1.22.16,1.74,1.74,0,0,0-1.08.78,2.73,2.73,0,0,0-.4,1.16c-.07.49-.14.94-.21,1.36s-.11.93-.18,1.38l-.18,1.38c-.06.46-.12.95-.18,1.45s-.12,1-.19,1.59l-.77,6.3c-.07.54-.13,1.06-.17,1.56a2.1,2.1,0,0,0,.11,1.09,2,2,0,0,0,.91.85,5,5,0,0,0,1.2.45l0,.28Z"/><path class="cls-2" d="M182.76,320.56A5.19,5.19,0,0,1,182,322a5.85,5.85,0,0,1-1.1,1,4.48,4.48,0,0,1-1.18.62,7.64,7.64,0,0,1-2.27.41c-.83,0-1.63,0-2.41,0l-9.13-.29v-.28a5.27,5.27,0,0,0,1.27-.33,2.35,2.35,0,0,0,1-.67,1.34,1.34,0,0,0,.23-.48c.06-.22.12-.46.17-.74s.09-.58.12-.88.05-.61.06-.91,0-.62,0-1.07,0-.94.08-1.47,0-1.08.06-1.64,0-1.13.05-1.63,0-1.06,0-1.49,0-.84,0-1.23l0-1.27c0-.43,0-.92,0-1.49,0-.33,0-.67,0-1s0-.68-.07-1a6.27,6.27,0,0,0-.13-.86,1.28,1.28,0,0,0-.23-.56,2.15,2.15,0,0,0-.78-.62,4.23,4.23,0,0,0-1.1-.28v-.28l8.92.28a14.52,14.52,0,0,1,1.92.19,8.11,8.11,0,0,1,1.74.52,5.21,5.21,0,0,1,2.17,1.7,4.28,4.28,0,0,1,.79,2.8,4.1,4.1,0,0,1-1.22,3,5.76,5.76,0,0,1-3,1.43v.12a7,7,0,0,1,1.87.55,5.92,5.92,0,0,1,1.62,1.07,5.17,5.17,0,0,1,1.12,1.57,4.55,4.55,0,0,1,.37,2A5.46,5.46,0,0,1,182.76,320.56Zm-3-3.15a5.36,5.36,0,0,0-.65-1.34,4.63,4.63,0,0,0-1-1.07,5.44,5.44,0,0,0-1.29-.73,6,6,0,0,0-1.14-.3,9.77,9.77,0,0,0-1.33-.11l-2.57-.08-.06,1.79q0,.9-.06,1.71c0,.53,0,1,0,1.45s0,.82,0,1.14c0,.71,0,1.29,0,1.75a2.33,2.33,0,0,0,.34,1.15,1.89,1.89,0,0,0,.7.54,3.57,3.57,0,0,0,1.37.26,16.68,16.68,0,0,0,1.68-.06,4.84,4.84,0,0,0,1.76-.54,4.32,4.32,0,0,0,1.77-1.58A4.7,4.7,0,0,0,180,319,4.62,4.62,0,0,0,179.8,317.41Zm-1.11-11a4,4,0,0,0-1.63-1.63,7.16,7.16,0,0,0-3-.65,6.61,6.61,0,0,0-1,0,3.67,3.67,0,0,0-.69.12l-.06.3a2.66,2.66,0,0,0-.05.35c0,.15,0,.32-.05.52s0,.48-.06.82c0,.65-.08,1.37-.11,2.16s-.06,1.53-.08,2.24,0,1.29-.06,1.8,0,.8,0,.89l1.48,0c.41,0,.73,0,1,0a5.26,5.26,0,0,0,3.66-1.32,4.46,4.46,0,0,0,1.33-3.16A4.61,4.61,0,0,0,178.69,306.41Z"/><path class="cls-2" d="M205.76,322.17,188.86,324l0-.28a6.16,6.16,0,0,0,1.26-.51,2.29,2.29,0,0,0,.94-.81,1.38,1.38,0,0,0,.17-.51,4.26,4.26,0,0,0,.06-.76c0-.28,0-.57,0-.89s0-.61-.06-.91-.07-.61-.11-1.06-.08-.93-.13-1.47-.11-1.07-.17-1.63-.12-1.12-.18-1.62l-.59-5.41c0-.34-.08-.66-.11-1s-.09-.64-.14-.93a4.94,4.94,0,0,0-.21-.75,1.37,1.37,0,0,0-.29-.51,2.37,2.37,0,0,0-1.07-.61,5,5,0,0,0-1.34-.2l0-.28,8.4-.92,0,.28c-.23.06-.49.14-.8.25a3.28,3.28,0,0,0-.86.47,2.21,2.21,0,0,0-.64.79,2.39,2.39,0,0,0-.2,1.25c.06.65.11,1.25.16,1.79l.15,1.59c.05.52.1,1.06.17,1.62s.13,1.18.2,1.87.14,1.21.19,1.73.11,1,.17,1.48.11,1,.18,1.49.13,1.08.2,1.72.17,1.16.25,1.69a2.62,2.62,0,0,0,.41,1.17,1,1,0,0,0,.45.23,4.77,4.77,0,0,0,.79.16q.46,0,1,.06a7.67,7.67,0,0,0,1.07-.05l.66-.09,1-.16c.37-.07.74-.16,1.12-.25a7.75,7.75,0,0,0,1-.34,5.71,5.71,0,0,0,1.66-1,5.65,5.65,0,0,0,1.07-1.29,7,7,0,0,0,.69-1.52q.26-.81.48-1.68l.27.06Z"/><path class="cls-2" d="M226.84,316.83l-15.63,4.32-.07-.27a5,5,0,0,0,1.09-.68,2.54,2.54,0,0,0,.72-.92,1.36,1.36,0,0,0,.07-.53c0-.23,0-.48-.06-.76s-.08-.57-.14-.88-.14-.59-.22-.88-.16-.6-.27-1-.24-.91-.37-1.42-.27-1-.42-1.59-.3-1.08-.44-1.57l-1.46-5.28c-.09-.32-.18-.65-.29-1s-.21-.66-.32-1a5.44,5.44,0,0,0-.35-.79,1.29,1.29,0,0,0-.39-.47,1.86,1.86,0,0,0-1-.32,8,8,0,0,0-1.19.08l-.07-.27,14.09-3.9,3,4-.22.2a13.24,13.24,0,0,0-4.9-2.61,6.23,6.23,0,0,0-1.71.07,22.5,22.5,0,0,0-2.9.63c-.36.1-.73.21-1.1.34s-.65.25-.81.33c.05.3.18.9.41,1.81s.5,2,.83,3.15c.19.69.35,1.26.47,1.73s.25.85.34,1.15.16.52.2.68.07.25.08.3l.51-.14.88-.27,1-.34a6.47,6.47,0,0,0,.8-.35,4.6,4.6,0,0,0,1.13-.87,3,3,0,0,0,.62-1,4.07,4.07,0,0,0,.21-1.2,12.38,12.38,0,0,0,0-1.47l.3-.08,2.36,8.52-.31.09a9.75,9.75,0,0,0-1.11-1.62,5,5,0,0,0-1.27-1.13,3.22,3.22,0,0,0-1.15-.35,4.08,4.08,0,0,0-1.42.07l-.65.14c-.18,0-.35.08-.52.12l-.51.14-.66.19a9,9,0,0,0,.25,1.12c.14.49.28,1,.42,1.52.07.23.14.5.23.81s.16.61.25.92.16.56.24.82.15.48.2.66c.17.57.35,1.11.54,1.61a2.81,2.81,0,0,0,.61,1.07,1.64,1.64,0,0,0,1.25.24,10.31,10.31,0,0,0,1.93-.36c.29-.08.66-.19,1.11-.34a14.1,14.1,0,0,0,1.38-.52,5.54,5.54,0,0,0,1.39-.84,5.47,5.47,0,0,0,1.08-1.24,8.81,8.81,0,0,0,.85-1.74,18.93,18.93,0,0,0,.69-2.33h.3Z"/><path class="cls-2" d="M252.39,294.2a1.4,1.4,0,0,0-.38.88,2,2,0,0,0,.29.94c.2.38.4.76.62,1.13l2,3.56a5.54,5.54,0,0,1-.52.94,15.43,15.43,0,0,1-1.14,1.58,16.8,16.8,0,0,1-1.67,1.75,12.37,12.37,0,0,1-2.07,1.5,13.87,13.87,0,0,1-4.26,1.64,8.62,8.62,0,0,1-7.34-1.89,12,12,0,0,1-2.77-3.38,10.83,10.83,0,0,1-.68-1.47,11.52,11.52,0,0,1-.77-4.14,9.76,9.76,0,0,1,2-5.84,11.46,11.46,0,0,1,3.52-2.93,12.16,12.16,0,0,1,2.58-1.13,13.51,13.51,0,0,1,2.1-.46,7.74,7.74,0,0,1,1.44-.07,2.3,2.3,0,0,0,.58,0,1.07,1.07,0,0,0,.09-.44c0-.27.06-.6.1-1l.21-.12,3,5.32-.27.15a10.75,10.75,0,0,0-1.94-1.64,9.53,9.53,0,0,0-2-1,6.22,6.22,0,0,0-2.65-.26,7.17,7.17,0,0,0-2.87,1,6.05,6.05,0,0,0-2.32,2.28,7.51,7.51,0,0,0-1,3.11,10.74,10.74,0,0,0,.27,3.53,13.35,13.35,0,0,0,1.43,3.56,14.73,14.73,0,0,0,2.42,3.23,9.37,9.37,0,0,0,2.8,2,6.55,6.55,0,0,0,6.12-.35,6.06,6.06,0,0,0,1.82-1.58,3,3,0,0,0,.4-3.45,17,17,0,0,0-.85-1.71,17.7,17.7,0,0,0-1-1.49,2.3,2.3,0,0,0-1.11-.85,3.06,3.06,0,0,0-2.3.31l-.14-.24,6.74-3.85.14.24A5.11,5.11,0,0,0,252.39,294.2Z"/><path class="cls-2" d="M270.73,291.18l-.18-.22a2.33,2.33,0,0,0,.26-.29,3.37,3.37,0,0,0,.36-.56,2,2,0,0,0,.19-.68.87.87,0,0,0-.23-.65,3.81,3.81,0,0,0-.64-.54c-.32-.23-.73-.5-1.22-.81s-1-.64-1.65-1-1.25-.75-1.93-1.13l-5.38,4.54c.25.71.5,1.4.72,2.05l.69,2a7.63,7.63,0,0,0,.95,2,.87.87,0,0,0,.56.33,1.57,1.57,0,0,0,.67-.06,2.86,2.86,0,0,0,.69-.28l.63-.38.18.22-4.31,3.64-.2-.24a2.8,2.8,0,0,0,.65-1.06,2.38,2.38,0,0,0,.16-.69,5.82,5.82,0,0,0-.13-1.1,21.81,21.81,0,0,0-.6-2.32c-.29-.91-.61-1.94-1-3.1s-.75-2.34-1.15-3.56-.8-2.45-1.21-3.68-.8-2.38-1.15-3.46l-.6-.3a4.47,4.47,0,0,0,.31-1,5.17,5.17,0,0,0,.1-.93,6.65,6.65,0,0,0,0-.81c0-.24-.06-.44-.09-.58l.16-.14,4,2.37,3.69,2.17,3.41,2,3.28,1.91c.53.32,1,.57,1.35.76l1.28.63.43.15a3.92,3.92,0,0,0,.75.12,2.93,2.93,0,0,0,.91-.09,2.54,2.54,0,0,0,1-.49l.22.26Zm-13.62-10.77c.07.25.2.64.38,1.18s.4,1.18.66,1.94.54,1.63.88,2.58.69,2,1.08,3.11l5-4.25-2.33-1.34-2.25-1.28-2-1.11Z"/><path class="cls-2" d="M290.24,270.69l-11.17,12.82-.21-.19a7.24,7.24,0,0,0,.59-1.22,2.56,2.56,0,0,0,.14-1.23,1.65,1.65,0,0,0-.23-.5,6.08,6.08,0,0,0-.46-.6l-.61-.65q-.32-.33-.66-.63l-.8-.71-1.09-1-1.23-1.09-1.23-1.07-4.11-3.58-.74-.65a8.8,8.8,0,0,0-.73-.58,7,7,0,0,0-.66-.42,1.23,1.23,0,0,0-.56-.17,2.29,2.29,0,0,0-1.2.27,5.15,5.15,0,0,0-1.12.76l-.21-.18,5.55-6.37.21.18c-.12.2-.26.44-.41.73a3.35,3.35,0,0,0-.32.92,2.55,2.55,0,0,0,.06,1,2.31,2.31,0,0,0,.71,1.05c.48.45.92.85,1.33,1.21l1.19,1.08c.39.35.79.71,1.21,1.07l1.42,1.24,1.32,1.14,1.12,1,1.14,1c.4.33.83.7,1.31,1.12l1.34,1.08a2.59,2.59,0,0,0,1.09.58,1.18,1.18,0,0,0,.49-.13,3.59,3.59,0,0,0,.68-.43,8.22,8.22,0,0,0,.77-.63,6.64,6.64,0,0,0,.75-.75c.1-.1.24-.28.44-.52s.4-.5.62-.8.44-.61.66-.94a7.36,7.36,0,0,0,.51-.93,5.41,5.41,0,0,0,.45-3.54,7,7,0,0,0-.52-1.58q-.36-.77-.78-1.56l.23-.14Z"/><path class="cls-2" d="M302.68,252.31l-9.33,14.22-.23-.15a6.35,6.35,0,0,0,.41-1.3,2.35,2.35,0,0,0,0-1.24,1.49,1.49,0,0,0-.28-.46,5.67,5.67,0,0,0-.55-.53c-.21-.18-.44-.37-.69-.56s-.49-.37-.74-.53l-.88-.6-1.22-.83-1.37-.91-1.36-.89-4.55-3L281,255c-.29-.18-.55-.34-.81-.48a4.66,4.66,0,0,0-.71-.32,1.45,1.45,0,0,0-.58-.1,2.42,2.42,0,0,0-1.15.43,5.44,5.44,0,0,0-1,.91l-.23-.15,4.63-7.07.24.16c-.1.21-.2.47-.31.78a3,3,0,0,0-.19,1,2.13,2.13,0,0,0,.2,1,2.24,2.24,0,0,0,.84.95l1.48,1,1.32.9,1.36.9,1.57,1,1.45,1,1.25.81,1.26.82c.44.27.92.58,1.46.93l1.46.89a2.68,2.68,0,0,0,1.17.42.94.94,0,0,0,.46-.2,3.32,3.32,0,0,0,.62-.51c.22-.21.45-.46.68-.72a8.59,8.59,0,0,0,.64-.85l.36-.57c.16-.27.33-.56.51-.89s.36-.66.52-1a6.59,6.59,0,0,0,.38-1,5.72,5.72,0,0,0,.28-1.92,5.3,5.3,0,0,0-.31-1.64,7.42,7.42,0,0,0-.73-1.5q-.47-.7-1-1.44l.22-.17Z"/><path class="cls-2" d="M312.4,233.34l-7.15,14.54-.26-.12a5.21,5.21,0,0,0,.22-1.26,2.48,2.48,0,0,0-.21-1.16,1.53,1.53,0,0,0-.35-.41l-.6-.46c-.24-.16-.49-.32-.76-.47l-.8-.43q-.36-.16-1-.48l-1.31-.67c-.47-.25-1-.49-1.46-.74l-1.47-.72-4.91-2.42c-.3-.15-.61-.3-.94-.44s-.63-.29-.93-.4a4.51,4.51,0,0,0-.82-.26,1.28,1.28,0,0,0-.61,0,1.89,1.89,0,0,0-.89.51,8.3,8.3,0,0,0-.72.94l-.26-.13,6.46-13.11,4.95.43v.29a13.23,13.23,0,0,0-5.2,1.93,6.27,6.27,0,0,0-1.09,1.33,21,21,0,0,0-1.46,2.58c-.17.33-.32.69-.48,1.05s-.24.65-.29.82c.26.16.8.47,1.62.9s1.8.93,2.91,1.48l1.61.79c.44.21.8.39,1.08.51l.65.31.27.13.24-.47.38-.83.39-1a6.51,6.51,0,0,0,.27-.83,4.48,4.48,0,0,0,.1-1.42,2.87,2.87,0,0,0-.35-1.14,4.39,4.39,0,0,0-.76-1c-.32-.3-.69-.62-1.11-.95l.14-.28,7.93,3.9-.14.29a9.81,9.81,0,0,0-1.95-.24,4.82,4.82,0,0,0-1.69.19,3.62,3.62,0,0,0-1,.63,4.46,4.46,0,0,0-.89,1.11l-.33.58c-.08.15-.17.31-.24.47l-.24.47c-.08.16-.18.36-.3.62a9.34,9.34,0,0,0,1,.56l1.41.69.76.37.85.42c.27.14.53.26.78.37l.62.29c.54.25,1.07.47,1.56.67a2.85,2.85,0,0,0,1.21.25,1.66,1.66,0,0,0,1-.77,10.78,10.78,0,0,0,1-1.69c.13-.27.3-.62.49-1s.36-.89.52-1.38a5.85,5.85,0,0,0,.3-1.6,5.64,5.64,0,0,0-.21-1.64,9.25,9.25,0,0,0-.73-1.79A19.52,19.52,0,0,0,308,230l.21-.23Z"/><path class="cls-2" d="M319.5,214.19c-.21.1-.37.16-.47.2l-.36.13a3.72,3.72,0,0,1-.57.15l-1.12.27c-.6.15-1.15.28-1.63.38s-1,.21-1.44.33-1,.25-1.46.4-1.06.35-1.7.58a10.91,10.91,0,0,0-1.52.69,2.82,2.82,0,0,0-1.09,1,3.88,3.88,0,0,0-.36.69c0,.15-.12.34-.22.57l3,1c.85.29,1.56.53,2.16.71l1.47.46a2.12,2.12,0,0,0,1.1.07,2.33,2.33,0,0,0,1-.53,3.56,3.56,0,0,0,1-1.46l.27.09-2.78,8-.26-.09a7.3,7.3,0,0,0,.1-1.31,2.05,2.05,0,0,0-.33-1.12,1.38,1.38,0,0,0-.41-.37,6.78,6.78,0,0,0-.67-.36c-.26-.12-.54-.23-.83-.35s-.58-.23-.87-.33l-1-.36-1.39-.51-1.54-.55L306,222.1l-5.18-1.8-1-.32-.95-.27a4.72,4.72,0,0,0-.83-.15,1.32,1.32,0,0,0-.6.06,2,2,0,0,0-.87.64,10.6,10.6,0,0,0-.64,1.05l-.27-.09c.05-.13.17-.48.36-1l.65-1.93.73-2.16.61-1.75q.59-1.68,1.14-2.94a6,6,0,0,1,1.54-2.13,5.25,5.25,0,0,1,2.27-1.2,5.09,5.09,0,0,1,2.87.23,4.74,4.74,0,0,1,1.65.95,5,5,0,0,1,1.07,1.38,5.78,5.78,0,0,1,.57,1.67,11.1,11.1,0,0,1,.17,1.82l.08,0a3.24,3.24,0,0,1,1-.58,9.15,9.15,0,0,1,1.28-.43l2.67-.66,2.54-.65a8.69,8.69,0,0,0,2.64-1.1A5,5,0,0,0,321,209l.26.09ZM302.11,211a4.62,4.62,0,0,0-2.28,1.25,5.85,5.85,0,0,0-.86,1.12,7.58,7.58,0,0,0-.61,1.35c-.12.34-.21.63-.27.85s-.1.4-.12.52l.26.15.29.14.51.21.93.36c.61.23,1.31.49,2.08.76l2.26.8,1.9.66,1,.35a18,18,0,0,0,.57-1.95,7.25,7.25,0,0,0,.21-1.85,4.67,4.67,0,0,0-.24-1.62,4.42,4.42,0,0,0-.69-1.29,4.61,4.61,0,0,0-1.05-1,5.41,5.41,0,0,0-1.32-.65A4.68,4.68,0,0,0,302.11,211Z"/><path class="cls-2" d="M305.69,186.47a4,4,0,0,0,.54,1.1,6.94,6.94,0,0,0,.89,1c.36.34.76.72,1.22,1.12l1.27,1.14,1.65,1.49,1.64,1.47,1.22,1.11,5.56,1c.53.1,1.05.18,1.56.25a2.18,2.18,0,0,0,1.11-.06,1.85,1.85,0,0,0,1-.87,9.45,9.45,0,0,0,.52-1.14l.28.05-1.47,8-.28-.05a5.48,5.48,0,0,0,0-1.24,2.78,2.78,0,0,0-.67-1.24,1,1,0,0,0-.44-.28l-.72-.24c-.28-.08-.57-.15-.88-.21l-.91-.18c-.51-.12-1.12-.24-1.83-.38l-2.58-.49-.58.22-1.21.44-1.6.57-1.72.61-1.58.57c-.49.18-.89.33-1.2.46l-1.62.63a7.4,7.4,0,0,0-1.29.61,4.81,4.81,0,0,0-.89.68,1.87,1.87,0,0,0-.48.87l-.27,0,1.44-7.89.28.05c0,.26-.05.53-.06.8a3.17,3.17,0,0,0,0,.76,1.44,1.44,0,0,0,.23.61.81.81,0,0,0,.52.31,2.91,2.91,0,0,0,1.16-.18c.54-.16,1.08-.34,1.63-.52l1.32-.46c.52-.18,1.07-.37,1.65-.59l1.79-.65c.61-.22,1.19-.43,1.74-.61-.31-.29-.7-.65-1.19-1.08L311,192.76l-1.44-1.26c-.46-.4-.82-.7-1.09-.91l-.45-.38c-.18-.14-.36-.28-.56-.41a4.6,4.6,0,0,0-.6-.37,2.4,2.4,0,0,0-.59-.22,1.08,1.08,0,0,0-.73.09,1.4,1.4,0,0,0-.48.46,3.32,3.32,0,0,0-.34.68l-.26.73-.28,0,1.1-6,.28.05A3.86,3.86,0,0,0,305.69,186.47Z"/></svg>